<?xml version="1.0" encoding="UTF-8" standalone="no"?>
<!DOCTYPE svg PUBLIC "-//W3C//DTD SVG 1.1//EN" "http://www.w3.org/Graphics/SVG/1.1/DTD/svg11.dtd">
<svg width="100%" height="100%" viewBox="0 0 783 160" version="1.1" xmlns="http://www.w3.org/2000/svg" xmlns:xlink="http://www.w3.org/1999/xlink" xml:space="preserve" xmlns:serif="http://www.serif.com/" style="fill-rule:evenodd;clip-rule:evenodd;stroke-linejoin:round;stroke-miterlimit:1.41421;">
    <path d="M176.3,139.1C169.6,137.4 170,141.4 170,79.9L170,24L172.7,22.3C175.1,20.7 178,20.5 197.5,20.5C222.1,20.6 227.6,21.6 234.4,27.2C240.2,32 242.3,37.1 242.8,47.6C243.4,59.6 241.5,65.6 235.3,71.7C232.3,74.5 231.4,76 232.5,76C233.4,76 236.3,78.2 238.9,80.8C245,87 246.4,92.2 245.8,107.1C245.3,119.9 242.9,126.2 236.2,132C229.2,138.2 224.7,139.2 200.5,139.6C189,139.8 178,139.5 176.3,139.1ZM216.7,118.3C221.6,116 224,110.5 224,101.5C224,87.4 219.8,84 202.3,84L191,84L191,120L202.1,120C210.4,120 214.1,119.6 216.7,118.3ZM217.1,63.2C219.8,60.8 220.4,59.5 220.8,54.8C221.1,51 220.7,48.4 219.6,46.2C217,41.2 213.5,40 201.5,40L191,40L191,66L202.5,66C213.7,66 214,65.9 217.1,63.2Z" style="fill-rule:nonzero;"/>
    <path d="M282.5,137.9C273.3,135 267.8,130.3 263.8,122.3L260.5,115.5L260.5,69.5L260.5,23.5L263.3,22.2C267.5,20.2 275.8,20.5 278.9,22.8L281.5,24.7L282,67.6C282.6,116.2 282.4,115.5 290.3,119.1C299.5,123.2 310.6,120.3 314,112.8C315.8,108.8 316,105.9 316,67.4C316,21 315.8,22.4 323.6,21.1C327.8,20.3 334.6,21.4 336.7,23.2C337.7,24 338,33.5 338,67.9C338,115.9 337.8,118.1 331.9,126.6C328.5,131.6 321.4,136.3 314.1,138.4C306.3,140.7 290.2,140.5 282.5,137.9Z" style="fill-rule:nonzero;"/>
    <path d="M362.4,138.9C355.6,136.9 356,140.2 356.2,79.5L356.5,24.7L359.1,22.8C362.2,20.5 370.5,20.2 374.7,22.2L377.5,23.5L377.8,71.8L378,120L398.5,120C417.6,120 419.1,120.1 421,122C424.6,125.6 424.8,133.1 421.6,137.6C420.2,139.4 418.5,139.5 392.8,139.7C377.8,139.8 364.1,139.5 362.4,138.9Z" style="fill-rule:nonzero;"/>
    <path d="M441.6,138.9C433.6,137.6 434,140.2 434,82.6C434,50.2 434.4,30.1 435.1,27.7C436.6,22.1 439.7,20.6 449.3,20.9C455.2,21.1 458.7,25.4 470.6,47C476.5,57.7 481.3,66.6 481.4,66.7C481.5,66.8 486.3,58.4 492.1,47.8C497.8,37.3 503.9,27.2 505.5,25.4C510.4,19.8 521.5,19.1 526.4,23.9C528.5,26 528.5,26.3 528.5,80.7L528.5,135.3L526,137.2C522.2,140 513,139.7 507.8,136.6C507.7,136.6 507.3,120.6 507,101.1L506.5,65.8L497.1,82.4C492,91.6 487,99.5 486,100C482.7,101.7 478.1,101.1 475.7,98.7C474.5,97.5 469.7,89.2 465,80.3L456.5,64.2L456.2,100.1L456,135.9L453.8,137.1C450.3,139 445.8,139.7 441.6,138.9Z" style="fill-rule:nonzero;"/>
    <path d="M548.7,138.8C543.8,137.8 540.1,135.3 539.4,132.4C539,131 544.5,111.6 554.5,78.8C563.2,50.6 570.7,26.5 571.3,25.3C572.7,22.1 578,20 584.5,20C592.4,20 596.5,22.2 598.5,27.3C601.2,34.7 630,129.4 630,131C629.8,137.3 614,142.2 610,137.3C609.2,136.2 607.2,130.6 605.6,124.7L602.7,114L584.5,114L566.3,114L563.5,124.3C562,129.9 560.1,135.5 559.4,136.6C557.9,139.1 554,139.9 548.7,138.8ZM597,94.8C597,93.6 585,50.8 584.5,50.2C584.4,50.1 582.2,57.3 579.6,66.2C577.1,75.2 574.1,85.5 573.1,89.3L571.1,96L584.1,96C593.6,96 597,95.7 597,94.8Z" style="fill-rule:nonzero;"/>
    <path d="M24.5,135L-0.4,110L4.5,75L9.4,40.1L29.7,19.8L50,-0.5L75.2,24.8L100.5,50L85.5,65L70.5,80L90.5,100C102.9,112.4 110.1,120.3 109.5,120.9C107.6,122.6 51,160 50.3,160C49.8,160 38.3,148.8 24.5,135Z" style="fill:rgb(0,209,178);fill-rule:nonzero;"/>
    <path d="M775.573,141L667.855,141C663.756,141 660.428,137.672 660.428,133.573L660.428,26.327C660.428,22.228 663.755,18.9 667.855,18.9L775.573,18.9C779.672,18.9 783,22.228 783,26.327L783,133.573C783,137.672 779.672,141 775.573,141ZM684.3,123.2C681.2,122.9 681,122.6 681,119.1L681,115.2L685.6,115.8C690.8,116.4 694.3,114.9 695.9,111.3C696.6,109.7 697,97.2 697,73L697,37L705.1,37L704.8,75.3C704.5,113.5 704.5,113.5 702.2,116.8C698.5,121.9 692.4,124.1 684.3,123.2ZM722.8,104.8C719.2,103.9 719,103.6 719,99.9C719,95.5 719.3,95.4 726.4,97.5C732.6,99.4 743,99.4 747.5,97.6C751.3,96 754,91.6 754,87.1C754,82.4 749.7,78.7 738.6,73.9C727.6,69.2 724,66.6 721.6,61.6C719.6,57.4 719.5,49.8 721.5,46.1C723.6,42 728.4,38.2 733.3,36.9C738.1,35.6 751.9,36.2 756.8,38C760.2,39.3 760.6,40.5 758.9,44.4C757.9,46.5 757.4,46.7 755.1,45.9C746.1,42.4 735.6,42.7 731.3,46.5C729.2,48.2 728.7,49.6 728.6,53.2C728.5,59.5 730.9,61.9 742.9,67.1C758.5,73.8 762,77.6 762,87.5C762,94.1 759,99.3 753.3,102.7C748.9,105.3 747.5,105.5 737.5,105.7C731.5,105.8 724.8,105.4 722.8,104.8Z" style="fill:rgb(0,209,178);"/>
</svg>
